<svg xmlns="http://www.w3.org/2000/svg" version="1.1" xmlns:xlink="http://www.w3.org/1999/xlink" xmlns:svgjs="http://svgjs.com/svgjs" width="1440" height="560" preserveAspectRatio="none" viewBox="0 0 1440 560"><g mask="url(&quot;#SvgjsMask1009&quot;)" fill="none"><rect width="1440" height="560" x="0" y="0" fill="rgba(0, 0, 0, 0.85)"></rect><path d="M1166 433L1165 725" stroke-width="6" stroke="url(#SvgjsLinearGradient1010)" stroke-linecap="round" class="Down"></path><path d="M1339 91L1338 -288" stroke-width="10" stroke="url(#SvgjsLinearGradient1011)" stroke-linecap="round" class="Up"></path><path d="M262 522L261 138" stroke-width="10" stroke="url(#SvgjsLinearGradient1010)" stroke-linecap="round" class="Down"></path><path d="M47 479L46 724" stroke-width="6" stroke="url(#SvgjsLinearGradient1010)" stroke-linecap="round" class="Down"></path><path d="M726 505L725 760" stroke-width="10" stroke="url(#SvgjsLinearGradient1010)" stroke-linecap="round" class="Down"></path><path d="M79 417L78 137" stroke-width="8" stroke="url(#SvgjsLinearGradient1010)" stroke-linecap="round" class="Down"></path><path d="M426 282L425 -5" stroke-width="8" stroke="url(#SvgjsLinearGradient1011)" stroke-linecap="round" class="Up"></path><path d="M1060 558L1059 800" stroke-width="6" stroke="url(#SvgjsLinearGradient1011)" stroke-linecap="round" class="Up"></path><path d="M211 44L210 389" stroke-width="10" stroke="url(#SvgjsLinearGradient1011)" stroke-linecap="round" class="Up"></path><path d="M826 37L825 445" stroke-width="8" stroke="url(#SvgjsLinearGradient1010)" stroke-linecap="round" class="Down"></path><path d="M347 472L346 290" stroke-width="10" stroke="url(#SvgjsLinearGradient1010)" stroke-linecap="round" class="Down"></path><path d="M849 512L848 357" stroke-width="8" stroke="url(#SvgjsLinearGradient1010)" stroke-linecap="round" class="Down"></path><path d="M687 536L686 260" stroke-width="6" stroke="url(#SvgjsLinearGradient1011)" stroke-linecap="round" class="Up"></path><path d="M403 156L402 513" stroke-width="8" stroke="url(#SvgjsLinearGradient1010)" stroke-linecap="round" class="Down"></path><path d="M1302 224L1301 -83" stroke-width="10" stroke="url(#SvgjsLinearGradient1011)" stroke-linecap="round" class="Up"></path><path d="M261 426L260 113" stroke-width="6" stroke="url(#SvgjsLinearGradient1010)" stroke-linecap="round" class="Down"></path><path d="M1343 91L1342 447" stroke-width="8" stroke="url(#SvgjsLinearGradient1010)" stroke-linecap="round" class="Down"></path><path d="M1057 419L1056 52" stroke-width="6" stroke="url(#SvgjsLinearGradient1011)" stroke-linecap="round" class="Up"></path><path d="M1217 25L1216 366" stroke-width="8" stroke="url(#SvgjsLinearGradient1011)" stroke-linecap="round" class="Up"></path><path d="M1127 537L1126 238" stroke-width="6" stroke="url(#SvgjsLinearGradient1011)" stroke-linecap="round" class="Up"></path><path d="M1376 520L1375 825" stroke-width="8" stroke="url(#SvgjsLinearGradient1011)" stroke-linecap="round" class="Up"></path><path d="M194 33L193 397" stroke-width="10" stroke="url(#SvgjsLinearGradient1010)" stroke-linecap="round" class="Down"></path><path d="M1315 512L1314 304" stroke-width="8" stroke="url(#SvgjsLinearGradient1011)" stroke-linecap="round" class="Up"></path><path d="M20 143L19 -219" stroke-width="10" stroke="url(#SvgjsLinearGradient1010)" stroke-linecap="round" class="Down"></path><path d="M1064 381L1063 114" stroke-width="6" stroke="url(#SvgjsLinearGradient1011)" stroke-linecap="round" class="Up"></path><path d="M925 301L924 509" stroke-width="8" stroke="url(#SvgjsLinearGradient1010)" stroke-linecap="round" class="Down"></path><path d="M905 519L904 131" stroke-width="8" stroke="url(#SvgjsLinearGradient1010)" stroke-linecap="round" class="Down"></path><path d="M775 209L774 354" stroke-width="8" stroke="url(#SvgjsLinearGradient1010)" stroke-linecap="round" class="Down"></path><path d="M900 405L899 804" stroke-width="6" stroke="url(#SvgjsLinearGradient1010)" stroke-linecap="round" class="Down"></path><path d="M1352 86L1351 424" stroke-width="6" stroke="url(#SvgjsLinearGradient1010)" stroke-linecap="round" class="Down"></path><path d="M341 149L340 -198" stroke-width="8" stroke="url(#SvgjsLinearGradient1010)" stroke-linecap="round" class="Down"></path><path d="M1200 516L1199 247" stroke-width="10" stroke="url(#SvgjsLinearGradient1011)" stroke-linecap="round" class="Up"></path><path d="M1302 169L1301 -6" stroke-width="6" stroke="url(#SvgjsLinearGradient1010)" stroke-linecap="round" class="Down"></path><path d="M442 393L441 572" stroke-width="6" stroke="url(#SvgjsLinearGradient1011)" stroke-linecap="round" class="Up"></path><path d="M623 116L622 333" stroke-width="6" stroke="url(#SvgjsLinearGradient1011)" stroke-linecap="round" class="Up"></path><path d="M537 118L536 351" stroke-width="6" stroke="url(#SvgjsLinearGradient1010)" stroke-linecap="round" class="Down"></path></g><defs><mask id="SvgjsMask1009"><rect width="1440" height="560" fill="#ffffff"></rect></mask><linearGradient x1="0%" y1="0%" x2="0%" y2="100%" id="SvgjsLinearGradient1010"><stop stop-color="rgba(33, 140, 255, 0)" offset="0"></stop><stop stop-color="rgba(33, 140, 255, 1)" offset="1"></stop></linearGradient><linearGradient x1="0%" y1="100%" x2="0%" y2="0%" id="SvgjsLinearGradient1011"><stop stop-color="rgba(33, 140, 255, 0)" offset="0"></stop><stop stop-color="rgba(33, 140, 255, 1)" offset="1"></stop></linearGradient></defs></svg>