<svg width="1920" height="1080" viewBox="0 0 1920 1080" xmlns="http://www.w3.org/2000/svg"><rect width="1920" height="1080" fill="#1e90fe"/><path d="M 0,1080 C 0,1080 0,180 0,180 C 126.7797192629993,186.55836791879244 253.5594385259986,193.1167358375849 225,189 C 196.4405614740014,184.8832641624151 12.541965159004917,170.0914245684528 154,177 C 295.4580348409951,183.9085754315472 762.2727008379816,212.51756588860397 912,215 C 1061.7272991620184,217.48243411139603 894.3672314890692,193.8383118771313 879,185 C 863.6327685109308,176.1616881228687 1000.2583732057417,182.12918660287085 1100,175 C 1199.7416267942583,167.87081339712915 1262.599275687964,147.64494171138546 1358,132 C 1453.400724312036,116.35505828861456 1581.3445240424014,105.29104655158739 1547,121 C 1512.6554759575986,136.70895344841261 1316.0226281424302,179.19087208226495 1439,192 C 1561.9773718575698,204.80912791773505 2004.564963387877,187.94546511935286 2138,181 C 2271.435036612123,174.05453488064714 2095.7175183060617,177.02726744032356 1920,180 C 1920,180 1920,1080 1920,1080 Z" fill="#1d4999" opacity="0.09999999999999999"/><path d="M 0,1080 C 0,1080 0,360 0,360 C 179.90180813661476,365.3217901609876 359.8036162732295,370.6435803219752 350,363 C 340.1963837267705,355.3564196780248 140.68734304369661,334.74746887308675 244,318 C 347.3126569563034,301.25253112691325 753.4470115519841,288.36654418567764 883,313 C 1012.5529884480159,337.63345581432236 865.5246107483673,399.7863543842026 892,403 C 918.4753892516327,406.2136456157974 1118.4545454545457,350.48803827751203 1169,356 C 1219.5454545454543,361.51196172248797 1120.6572074334504,428.2614925057495 1155,427 C 1189.3427925665496,425.7385074942505 1356.9166248116524,356.46599169948985 1477,331 C 1597.0833751883476,305.53400830051015 1669.6762933199395,323.8745406962912 1711,345 C 1752.3237066800605,366.1254593037088 1762.3782019085888,390.03584551534533 1792,393 C 1821.6217980914112,395.96415448465467 1870.8108990457056,377.98207724232736 1920,360 C 1920,360 1920,1080 1920,1080 Z" fill="#1d4999" opacity="0.19999999999999998"/><path d="M 0,1080 C 0,1080 0,540 0,540 C 103.01108937587564,526.3457929102012 206.02217875175128,512.6915858204023 186,513 C 165.97782124824872,513.3084141795977 22.922374368870464,527.5794496285919 169,550 C 315.07762563112954,572.4205503714081 750.288323772767,602.9906156652303 908,593 C 1065.711676227233,583.0093843347697 945.9243305400619,532.4580877104867 993,504 C 1040.0756694599381,475.54191228951333 1254.0143540669856,469.17703349282294 1263,473 C 1271.9856459330144,476.82296650717706 1076.0182531919954,490.83377831822145 1182,503 C 1287.9817468080046,515.1662216817786 1695.9126331650323,525.4878532342912 1759,523 C 1822.0873668349677,520.5121467657088 1540.331214147876,505.21480874461383 1496,513 C 1451.668785852124,520.7851912553862 1644.762510243464,551.6529117872532 1755,560 C 1865.237489756536,568.3470882127468 1892.618744878268,554.1735441063734 1920,540 C 1920,540 1920,1080 1920,1080 Z" fill="#1d4999" opacity="0.3"/><path d="M 0,1080 C 0,1080 0,720 0,720 C 100.35221655343784,702.3832509450422 200.70443310687568,684.7665018900843 264,684 C 327.2955668931243,683.2334981099157 353.534484125935,699.3172433847049 432,717 C 510.465515874065,734.6827566152951 641.1576303893838,753.9645245710963 791,740 C 940.8423696106162,726.0354754289037 1109.8349943165297,678.8246583309102 1116,670 C 1122.1650056834703,661.1753416690898 965.5023923444975,690.736842105263 991,696 C 1016.4976076555025,701.263157894737 1224.1554363054802,682.2279732480372 1328,668 C 1431.8445636945198,653.7720267519628 1431.8758624335826,644.351264902588 1521,666 C 1610.1241375664174,687.648735097412 1788.3411139601897,740.366967141611 1829,755 C 1869.6588860398103,769.633032858389 1772.7596817256601,746.1808665309683 1765,734 C 1757.2403182743399,721.8191334690317 1838.62015913717,720.9095667345159 1920,720 C 1920,720 1920,1080 1920,1080 Z" fill="#1d4999" opacity="0.39999999999999997"/><path d="M 0,1080 C 0,1080 0,900 0,900 C 23.382101033598552,874.4679743054271 46.764202067197104,848.9359486108541 77,857 C 107.2357979328029,865.0640513891459 144.32529276481011,906.7241798620107 208,922 C 271.6747072351899,937.2758201379893 361.93462687356265,926.1673319411034 434,937 C 506.06537312643735,947.8326680588966 559.9361997409395,980.6064923735759 681,962 C 802.0638002590605,943.3935076264241 990.3205741626793,873.4066985645932 1080,872 C 1169.6794258373207,870.5933014354068 1160.7815036083427,937.766713368051 1271,939 C 1381.2184963916573,940.233286631949 1610.5534114039494,875.5264479632028 1655,849 C 1699.4465885960506,822.4735520367972 1559.00485077586,834.1274947791376 1537,863 C 1514.99514922414,891.8725052208624 1611.4271854926114,937.9635729202465 1695,947 C 1778.5728145073886,956.0364270797535 1849.2864072536943,928.0182135398768 1920,900 C 1920,900 1920,1080 1920,1080 Z" fill="#1d4999" opacity="0.49999999999999994"/></svg>