<?xml version="1.0" encoding="utf-8"?><svg xmlns="http://www.w3.org/2000/svg" xmlns:xlink="http://www.w3.org/1999/xlink" width="603" height="789" preserveAspectRatio="xMidYMid" viewBox="0 0 603 789" style="z-index:1;margin-right:-2px;display:block;background-repeat-y:initial;background-repeat-x:initial;background-color:rgb(7, 6, 22);animation-play-state:paused" ><g transform="translate(301.5,394.5) scale(1,1) translate(-301.5,-394.5)" style="transform:matrix(1, 0, 0, 1, 0, 0);animation-play-state:paused" ><defs style="animation-play-state:paused" ><path id="path-sz97jpw6zri-1" d="M-35 -35L35 -35L35 35L-35 35Z" fill="none" stroke="inherit" stroke-width="4.333333333333334" transform="scale(0.3)" style="transform:matrix(0.3, 0, 0, 0.3, 0, 0);animation-play-state:paused" ></path>

  
<path id="path-sz97jpw6zri-2" d="M0 -37A37 37 0 0 1 0 37A37 37 0 0 1 0 -37" fill="none" stroke="inherit" stroke-width="4.333333333333334" transform="scale(0.3)" style="transform:matrix(0.3, 0, 0, 0.3, 0, 0);animation-play-state:paused" ></path>

  
<path id="path-sz97jpw6zri-3" d="M0 -34.641L40 34.641L-40 34.641Z" fill="none" stroke="inherit" stroke-width="4.333333333333334" transform="scale(0.3)" style="transform:matrix(0.3, 0, 0, 0.3, 0, 0);animation-play-state:paused" ></path></defs>
<path id="path0" d="M 92.3621985954309 466.24690895509826
c 0 63.623014069491234 -15.56733322976913 18.274695530598546 -33.842028760367675 18.274695530598546
S 24.678141074695553 529.8699230245895 24.678141074695553 466.24690895509826
s 15.56733322976913 -18.274695530598546 33.842028760367675 -18.274695530598546
S 92.3621985954309 402.623894885607 92.3621985954309 466.24690895509826
z" fill="none" stroke="none" style="animation-play-state:paused" ></path>


<use xlink:href="#path-sz97jpw6zri-2" x="0" y="0" stroke="#bbddff" transform="translate(91.8590316772461 449.5888977050781)" style="animation-play-state:paused" ></use>
<path id="path1" d="M 106.89839702724659 624.9622706623971
c 0 61.84226716987754 -15.131618562842375 17.76320439985844 -32.894822962700815 17.76320439985844
S 41.10875110184496 686.8045378322747 41.10875110184496 624.9622706623971
s 15.131618562842375 -17.76320439985844 32.894822962700815 -17.76320439985844
S 106.89839702724659 563.1200034925196 106.89839702724659 624.9622706623971
z" fill="none" stroke="none" style="animation-play-state:paused" ></path>


<use xlink:href="#path-sz97jpw6zri-2" x="0" y="0" stroke="#bbddff" transform="translate(41.54888153076172 609.459716796875)" style="animation-play-state:paused" ></use>
<path id="path2" d="M 106.40474461086725 322.56999441006775
c 0 28.747215767272017 -7.033893219651663 8.257178996982388 -15.291072216634053 8.257178996982388
S 75.82260017759916 351.31721017733975 75.82260017759916 322.56999441006775
s 7.033893219651663 -8.257178996982388 15.291072216634053 -8.257178996982388
S 106.40474461086725 293.82277864279575 106.40474461086725 322.56999441006775
z" fill="none" stroke="none" style="animation-play-state:paused" ></path>


<use xlink:href="#path-sz97jpw6zri-1" x="0" y="0" stroke="#aabbcc" transform="translate(102.25047302246094 307.4667663574219)" style="animation-play-state:paused" ></use>
<path id="path3" d="M 167.90343669941214 169.15441723956542
c 0 63.32278146766676 -15.49387206123761 18.18845850667024 -33.68233056790785 18.18845850667024
S 100.53877556359643 232.47719870723216 100.53877556359643 169.15441723956542
s 15.49387206123761 -18.18845850667024 33.68233056790785 -18.18845850667024
S 167.90343669941214 105.83163577189866 167.90343669941214 169.15441723956542
z" fill="none" stroke="none" style="animation-play-state:paused" ></path>


<use xlink:href="#path-sz97jpw6zri-3" x="0" y="0" stroke="#ddeeff" transform="translate(133.7260284423828 187.35406494140625)" style="animation-play-state:paused" ></use>
<path id="path4" d="M 195.35147847643825 182.16502664509878
c 0 62.489641438539714 -15.29001864985546 17.949152328091195 -33.23917097794666 17.949152328091195
S 128.87313652054493 244.65466808363848 128.87313652054493 182.16502664509878
s 15.29001864985546 -17.949152328091195 33.23917097794666 -17.949152328091195
S 195.35147847643825 119.67538520655907 195.35147847643825 182.16502664509878
z" fill="none" stroke="none" style="animation-play-state:paused" ></path>


<use xlink:href="#path-sz97jpw6zri-1" x="0" y="0" stroke="#aabbcc" transform="translate(175.8554229736328 157.4291229248047)" style="animation-play-state:paused" ></use>
<path id="path5" d="M 204.7656833660128 280.847108196302
c 0 32.601836847853086 -7.9770451861768175 9.36435739246844 -17.34140257864526 9.36435739246844
S 170.08287820872226 313.44894504415504 170.08287820872226 280.847108196302
s 7.9770451861768175 -9.36435739246844 17.34140257864526 -9.36435739246844
S 204.7656833660128 248.24527134844888 204.7656833660128 280.847108196302
z" fill="none" stroke="none" style="animation-play-state:paused" ></path>


<use xlink:href="#path-sz97jpw6zri-3" x="0" y="0" stroke="#ddeeff" transform="translate(186.55039978027344 271.4170837402344)" style="animation-play-state:paused" ></use>
<path id="path6" d="M 233.58370220807268 439.6598815700811
c 0 26.757681375325372 -6.547092251409399 7.685716990784948 -14.232809242194346 7.685716990784948
S 205.11808372368398 466.4175629454065 205.11808372368398 439.6598815700811
s 6.547092251409399 -7.685716990784948 14.232809242194346 -7.685716990784948
S 233.58370220807268 412.9022001947557 233.58370220807268 439.6598815700811
z" fill="none" stroke="none" style="animation-play-state:paused" ></path>


<use xlink:href="#path-sz97jpw6zri-2" x="0" y="0" stroke="#ddeeff" transform="translate(232.83070373535156 450.7818603515625)" style="animation-play-state:paused" ></use>
<path id="path7" d="M 271.37489034452835 655.2498228259732
c 0 38.99174509236641 -9.54053337366412 11.199756569083968 -20.74028994274809 11.199756569083968
S 229.89431045903217 694.2415679183396 229.89431045903217 655.2498228259732
s 9.54053337366412 -11.199756569083968 20.74028994274809 -11.199756569083968
S 271.37489034452835 616.2580777336068 271.37489034452835 655.2498228259732
z" fill="none" stroke="none" style="animation-play-state:paused" ></path>


<use xlink:href="#path-sz97jpw6zri-1" x="0" y="0" stroke="#bbddff" transform="translate(235.30581665039062 634.674072265625)" style="animation-play-state:paused" ></use>
<path id="path8" d="M 284.8402178487751 591.8393592280536
c 0 20.10962978300117 -4.920441329883265 5.776170256819486 -10.696611586702751 5.776170256819486
S 263.4469946753696 611.9489890110548 263.4469946753696 591.8393592280536
s 4.920441329883265 -5.776170256819486 10.696611586702751 -5.776170256819486
S 284.8402178487751 571.7297294450524 284.8402178487751 591.8393592280536
z" fill="none" stroke="none" style="animation-play-state:paused" ></path>


<use xlink:href="#path-sz97jpw6zri-1" x="0" y="0" stroke="#bbddff" transform="translate(269.2373352050781 583.4682006835938)" style="animation-play-state:paused" ></use>
<path id="path9" d="M 333.56067744987894 632.7293075075825
c 0 60.03799181786006 -14.690146934157246 17.24495509661938 -31.935102030776626 17.24495509661938
S 269.69047338832564 692.7672993254425 269.69047338832564 632.7293075075825
s 14.690146934157246 -17.24495509661938 31.935102030776626 -17.24495509661938
S 333.56067744987894 572.6913156897224 333.56067744987894 632.7293075075825
z" fill="none" stroke="none" style="animation-play-state:paused" ></path>


<use xlink:href="#path-sz97jpw6zri-1" x="0" y="0" stroke="#bbddff" transform="translate(269.9481506347656 644.8689575195312)" style="animation-play-state:paused" ></use>
<path id="path10" d="M 369.7958555483004 627.113803301113
c 0 61.914995768240324 -15.149413858186461 17.784094529175412 -32.933508387361876 17.784094529175412
S 303.9288387735766 689.0287990693533 303.9288387735766 627.113803301113
s 15.149413858186461 -17.784094529175412 32.933508387361876 -17.784094529175412
S 369.7958555483004 565.1988075328726 369.7958555483004 627.113803301113
z" fill="none" stroke="none" style="animation-play-state:paused" ></path>


<use xlink:href="#path-sz97jpw6zri-2" x="0" y="0" stroke="#ddeeff" transform="translate(324.0819396972656 603.2943725585938)" style="animation-play-state:paused" ></use>
<path id="path11" d="M 424.9144719000026 415.3894614673755
c 0 61.5080786627465 -15.0498490345018 17.66721408398038 -32.71706311848218 17.66721408398038
S 359.4803456630382 476.897540130122 359.4803456630382 415.3894614673755
s 15.0498490345018 -17.66721408398038 32.71706311848218 -17.66721408398038
S 424.9144719000026 353.88138280462897 424.9144719000026 415.3894614673755
z" fill="none" stroke="none" style="animation-play-state:paused" ></path>


<use xlink:href="#path-sz97jpw6zri-1" x="0" y="0" stroke="#ddeeff" transform="translate(379.27813720703125 391.5451354980469)" style="animation-play-state:paused" ></use>
<path id="path12" d="M 426.98334977549194 463.37674382533
c 0 37.941924594373006 -9.283662400750842 10.898212383490119 -20.18187478424096 10.898212383490119
S 386.61960020701 501.318668419703 386.61960020701 463.37674382533
s 9.283662400750842 -10.898212383490119 20.18187478424096 -10.898212383490119
S 426.98334977549194 425.434819230957 426.98334977549194 463.37674382533
z" fill="none" stroke="none" style="animation-play-state:paused" ></path>


<use xlink:href="#path-sz97jpw6zri-3" x="0" y="0" stroke="#bbddff" transform="translate(400.2536315917969 449.7772216796875)" style="animation-play-state:paused" ></use>
<path id="path13" d="M 469.0113343252292 656.4408234990947
c 0 56.42512208496242 -13.806146893129101 16.20721591802112 -30.013362811150223 16.20721591802112
S 408.98460870292877 712.865945584057 408.98460870292877 656.4408234990947
s 13.806146893129101 -16.20721591802112 30.013362811150223 -16.20721591802112
S 469.0113343252292 600.0157014141323 469.0113343252292 656.4408234990947
z" fill="none" stroke="none" style="animation-play-state:paused" ></path>


<use xlink:href="#path-sz97jpw6zri-3" x="0" y="0" stroke="#aabbcc" transform="translate(447.92633056640625 676.0847778320312)" style="animation-play-state:paused" ></use>
<path id="path14" d="M 503.22882499357974 448.53723543146026
c 0 53.362958738004124 -13.05689415929888 15.327658360916079 -28.38455252021496 15.327658360916079
S 446.4597199531498 501.9001941694644 446.4597199531498 448.53723543146026
s 13.05689415929888 -15.327658360916079 28.38455252021496 -15.327658360916079
S 503.22882499357974 395.17427669345614 503.22882499357974 448.53723543146026
z" fill="none" stroke="none" style="animation-play-state:paused" ></path>


<use xlink:href="#path-sz97jpw6zri-3" x="0" y="0" stroke="#bbddff" transform="translate(502.86883544921875 435.452392578125)" style="animation-play-state:paused" ></use>
<path id="path15" d="M 526.693813350424 284.0881194750282
c 0 42.401437940809835 -10.374819921687513 12.17913642980708 -22.55395635149459 12.17913642980708
S 481.5859006474348 326.489557415838 481.5859006474348 284.0881194750282
s 10.374819921687513 -12.17913642980708 22.55395635149459 -12.17913642980708
S 526.693813350424 241.68668153421834 526.693813350424 284.0881194750282
z" fill="none" stroke="none" style="animation-play-state:paused" ></path>


<use xlink:href="#path-sz97jpw6zri-1" x="0" y="0" stroke="#bbddff" transform="translate(500.4578857421875 297.11053466796875)" style="animation-play-state:paused" ></use>
<path id="path16" d="M 550.8059152571246 492.4879690416077
c 0 32.96156505146528 -8.065063789188311 9.467683578612368 -17.532747367800678 9.467683578612368
S 515.7404205215233 525.449534093073 515.7404205215233 492.4879690416077
s 8.065063789188311 -9.467683578612368 17.532747367800678 -9.467683578612368
S 550.8059152571246 459.5264039901424 550.8059152571246 492.4879690416077
z" fill="none" stroke="none" style="animation-play-state:paused" ></path>


<use xlink:href="#path-sz97jpw6zri-3" x="0" y="0" stroke="#aabbcc" transform="translate(550.6084594726562 500.1729431152344)" style="animation-play-state:paused" ></use>
<path id="path17" d="M 586.2155379422152 381.67516140973964
c 0 36.20858060208895 -8.859546317532402 10.400336981451082 -19.259883298983485 10.400336981451082
S 547.6957713442482 417.8837420118286 547.6957713442482 381.67516140973964
s 8.859546317532402 -10.400336981451082 19.259883298983485 -10.400336981451082
S 586.2155379422152 345.4665808076507 586.2155379422152 381.67516140973964
z" fill="none" stroke="none" style="animation-play-state:paused" ></path>


<use xlink:href="#path-sz97jpw6zri-2" x="0" y="0" stroke="#bbddff" transform="translate(586.1083984375 375.4656066894531)" style="animation-play-state:paused" ></use></g></svg>